<svg height="1166" width="720" xmlns="http://www.w3.org/2000/svg">
<rect height="1166" fill="#555" width="720"></rect>
<text fill="#7f7" font-family="Courier New" font-size="12" xml:space="preserve">
<tspan x="10" y="26">3 megabytes installed</tspan>
<tspan x="10" y="42"></tspan>
<tspan x="10" y="58">node_modules</tspan>
<tspan x="10" y="74">├── UNMET PEER DEPENDENCY grunt@&gt;=0.4.0</tspan>
<tspan x="10" y="90">└─┬ grunt-concurrent@2.3.1 </tspan>
<tspan x="10" y="106">  ├── arrify@1.0.1 </tspan>
<tspan x="10" y="122">  ├── async@1.5.2 </tspan>
<tspan x="10" y="138">  ├─┬ indent-string@2.1.0 </tspan>
<tspan x="10" y="154">  │ └─┬ repeating@2.0.1 </tspan>
<tspan x="10" y="170">  │   └─┬ is-finite@1.0.2 </tspan>
<tspan x="10" y="186">  │     └── number-is-nan@1.0.1 </tspan>
<tspan x="10" y="202">  └─┬ pad-stream@1.2.0 </tspan>
<tspan x="10" y="218">    ├─┬ meow@3.7.0 </tspan>
<tspan x="10" y="234">    │ ├─┬ camelcase-keys@2.1.0 </tspan>
<tspan x="10" y="250">    │ │ └── camelcase@2.1.1 </tspan>
<tspan x="10" y="266">    │ ├── decamelize@1.2.0 </tspan>
<tspan x="10" y="282">    │ ├─┬ loud-rejection@1.6.0 </tspan>
<tspan x="10" y="298">    │ │ ├─┬ currently-unhandled@0.4.1 </tspan>
<tspan x="10" y="314">    │ │ │ └── array-find-index@1.0.2 </tspan>
<tspan x="10" y="330">    │ │ └── signal-exit@3.0.2 </tspan>
<tspan x="10" y="346">    │ ├── map-obj@1.0.1 </tspan>
<tspan x="10" y="362">    │ ├── minimist@1.2.0 </tspan>
<tspan x="10" y="378">    │ ├─┬ normalize-package-data@2.3.6 </tspan>
<tspan x="10" y="394">    │ │ ├── hosted-git-info@2.4.2 </tspan>
<tspan x="10" y="410">    │ │ ├─┬ is-builtin-module@1.0.0 </tspan>
<tspan x="10" y="426">    │ │ │ └── builtin-modules@1.1.1 </tspan>
<tspan x="10" y="442">    │ │ ├── semver@5.3.0 </tspan>
<tspan x="10" y="458">    │ │ └─┬ validate-npm-package-license@3.0.1 </tspan>
<tspan x="10" y="474">    │ │   ├─┬ spdx-correct@1.0.2 </tspan>
<tspan x="10" y="490">    │ │   │ └── spdx-license-ids@1.2.2 </tspan>
<tspan x="10" y="506">    │ │   └── spdx-expression-parse@1.0.4 </tspan>
<tspan x="10" y="522">    │ ├── object-assign@4.1.1 </tspan>
<tspan x="10" y="538">    │ ├─┬ read-pkg-up@1.0.1 </tspan>
<tspan x="10" y="554">    │ │ ├─┬ find-up@1.1.2 </tspan>
<tspan x="10" y="570">    │ │ │ ├── path-exists@2.1.0 </tspan>
<tspan x="10" y="586">    │ │ │ └─┬ pinkie-promise@2.0.1 </tspan>
<tspan x="10" y="602">    │ │ │   └── pinkie@2.0.4 </tspan>
<tspan x="10" y="618">    │ │ └─┬ read-pkg@1.1.0 </tspan>
<tspan x="10" y="634">    │ │   ├─┬ load-json-file@1.1.0 </tspan>
<tspan x="10" y="650">    │ │   │ ├── graceful-fs@4.1.11 </tspan>
<tspan x="10" y="666">    │ │   │ ├─┬ parse-json@2.2.0 </tspan>
<tspan x="10" y="682">    │ │   │ │ └─┬ error-ex@1.3.1 </tspan>
<tspan x="10" y="698">    │ │   │ │   └── is-arrayish@0.2.1 </tspan>
<tspan x="10" y="714">    │ │   │ ├── pify@2.3.0 </tspan>
<tspan x="10" y="730">    │ │   │ └─┬ strip-bom@2.0.0 </tspan>
<tspan x="10" y="746">    │ │   │   └── is-utf8@0.2.1 </tspan>
<tspan x="10" y="762">    │ │   └── path-type@1.1.0 </tspan>
<tspan x="10" y="778">    │ ├─┬ redent@1.0.0 </tspan>
<tspan x="10" y="794">    │ │ └─┬ strip-indent@1.0.1 </tspan>
<tspan x="10" y="810">    │ │   └── get-stdin@4.0.1 </tspan>
<tspan x="10" y="826">    │ └── trim-newlines@1.0.0 </tspan>
<tspan x="10" y="842">    ├─┬ pumpify@1.3.5 </tspan>
<tspan x="10" y="858">    │ ├─┬ duplexify@3.5.0 </tspan>
<tspan x="10" y="874">    │ │ ├── end-of-stream@1.0.0 </tspan>
<tspan x="10" y="890">    │ │ └── stream-shift@1.0.0 </tspan>
<tspan x="10" y="906">    │ ├── inherits@2.0.3 </tspan>
<tspan x="10" y="922">    │ └─┬ pump@1.0.2 </tspan>
<tspan x="10" y="938">    │   ├─┬ end-of-stream@1.4.0 </tspan>
<tspan x="10" y="954">    │   │ └── once@1.4.0 </tspan>
<tspan x="10" y="970">    │   └─┬ once@1.3.3 </tspan>
<tspan x="10" y="986">    │     └── wrappy@1.0.2 </tspan>
<tspan x="10" y="1002">    ├── split2@1.1.1 </tspan>
<tspan x="10" y="1018">    └─┬ through2@2.0.3 </tspan>
<tspan x="10" y="1034">      ├─┬ readable-stream@2.2.9 </tspan>
<tspan x="10" y="1050">      │ ├── buffer-shims@1.0.0 </tspan>
<tspan x="10" y="1066">      │ ├── core-util-is@1.0.2 </tspan>
<tspan x="10" y="1082">      │ ├── isarray@1.0.0 </tspan>
<tspan x="10" y="1098">      │ ├── process-nextick-args@1.0.7 </tspan>
<tspan x="10" y="1114">      │ ├── string_decoder@1.0.0 </tspan>
<tspan x="10" y="1130">      │ └── util-deprecate@1.0.2 </tspan>
<tspan x="10" y="1146">      └── xtend@4.0.1</tspan>
</text>
</svg>
